<?xml version="1.0" encoding="UTF-8" standalone="no"?>
<svg
   xmlns:dc="http://purl.org/dc/elements/1.1/"
   xmlns:cc="http://creativecommons.org/ns#"
   xmlns:rdf="http://www.w3.org/1999/02/22-rdf-syntax-ns#"
   xmlns:svg="http://www.w3.org/2000/svg"
   xmlns="http://www.w3.org/2000/svg"
   id="svg8"
   viewBox="0 0 1200 1800"
   height="1800"
   width="1200"
   version="1.1">
  <metadata
     id="metadata4">
    <rdf:RDF>
      <rdf:Description
         about="http://sevenuc.com"
         dc:title="Logo of Sevenuc Consulting."
         dc:description="Use, reproduction, copying or redistribution of this file, without the written permission of Sevenuc Consulting is prohibited."
         dc:publisher="Sevenuc Consulting"
         dc:date="2007-07-11"
         dc:format="image/svg+xml"
         dc:language="en">
        <dc:creator>
          <rdf:Bag>
            <rdf:li>Sevenuc Consulting</rdf:li>
          </rdf:Bag>
        </dc:creator>
      </rdf:Description>
      <cc:Work
         rdf:about="">
        <dc:format>image/svg+xml</dc:format>
        <dc:type
           rdf:resource="http://purl.org/dc/dcmitype/StillImage" />
        <dc:title></dc:title>
      </cc:Work>
    </rdf:RDF>
  </metadata>
  <defs
     id="defs3394" />
  <path
     style="fill:#111160;stroke:#111160;stroke-width:1"
     id="background"
     d="m 1200,0 c 0,0 0,1800 0,1800 0,0 -1200,0 -1200,0 C 0,1800 0,0 0,0 0,0 1200,0 1200,0 Z" />
  <path
     id="seven"
     d="m 416.02023,372.3781 c -3.12,-3.36716 -9.97,-2.7628 -9.28999,-10.59362 0.34998,-3.97152 3.45,-7.11422 5.82999,-10.3605 0,0 12.71001,-17.26751 12.71001,-17.26751 2.25999,-3.42761 7.44999,-14.34067 8.58,-18.1309 0,0 2.44,-12.95062 2.44,-12.95062 1.22999,-2.92684 5.14998,-7.14011 7.61,-9.4626 3.20999,-3.03908 7.26999,-5.60331 11.71,-7.14875 8.8,-3.06499 11.79,-0.24174 16.31999,-9.28992 2.54001,-5.07665 -0.33999,-7.10558 -1.01,-12.08725 -0.65,-4.91261 1.98,-6.45806 1.89001,-9.49713 -0.08,-3.07362 -3.63001,-6.12997 -4.1,-12.08726 -0.96,-12.08726 15.84,-22.85356 28.9,-22.41323 13.17001,0.44032 21.03,4.37731 25.25,15.50622 1.14,3.00455 1.71,10.09286 3.34999,11.60377 2.04001,1.88215 8.35001,2.46925 11.40001,3.21175 5.44,1.31233 9.07999,3.60028 12.35001,7.63224 4.31999,5.30977 4.39,13.05424 6.78999,16.2142 1.73,2.28794 5.21,3.18585 7.86,4.85217 2.31,1.45046 4.95001,4.06649 8.00001,4.02333 1.29999,-0.0172 2.74999,-0.60437 3.94999,-1.2778 3.82999,-2.63329 0.32001,-5.06801 0,-9.99789 0.1,-3.03908 1.28001,-5.39609 3.44,-7.76174 6.87001,-7.4941 13.17,-7.15738 22.61,-8.97047 6.17,-1.19146 4.42,-2.45199 14.00001,-2.25342 10.87999,0.23312 12.68,4.73994 18.99999,3.81613 0,0 21,-8.133 21,-8.133 14.39,-5.16299 46.87,-16.55954 61.00001,-19.29644 0,0 53,-5.75009 53,-5.75009 46.78,-0.46622 91.94001,6.48395 124.83,37.98852 5.44001,5.2148 12.08993,13.65862 15.98999,19.85764 6.74003,10.69723 9.97005,20.91096 12.57002,32.80828 0,0 5.73997,31.08152 5.73997,31.08152 1.41998,5.0162 5.80998,12.70888 4.87,17.26751 -3.13001,-0.63026 -6.16,-1.3555 -8.69998,-3.15133 -6.45998,-4.54998 -16.75997,-22.51683 -20.10003,-29.65695 -9.92,-21.22177 -13.79996,-29.87279 -33.19996,-46.62228 -3.94001,-3.40169 -7.44999,-6.68252 -12.00002,-9.49713 10.82001,9.35036 27.33003,27.96474 31.97003,40.57866 0,0 8.67004,42.30539 8.67004,42.30539 0,0 8.66994,19.85764 8.66994,19.85764 0,0 4.68997,8.746 4.68997,8.746 -3.05001,0.63026 -5.8999,1.13102 -9.00004,0 -8.3799,-2.6333 -16.41995,-16.01561 -21.03992,-22.56 0,0 -18.27,-40.57866 -18.27,-40.57866 -7.44001,-13.91762 -25.37,-29.5188 -40.69,-37.12515 10.73998,8.52152 24.37999,18.37264 31.65998,29.35478 1.76001,2.65056 4.50002,7.49409 5.59001,10.36051 0,0 13.47003,51.80252 13.47003,51.80252 1.55997,4.51546 4.17001,11.42246 6.55,15.54076 3.16001,5.46517 6.72998,9.47986 8.72998,15.54076 -11.26001,2.53833 -25.70002,-8.27114 -31.84,-15.54076 -8.56001,-10.12739 -17.92001,-31.78949 -23.11,-44.03214 -3.69002,-8.72009 -7.45001,-18.65755 -14.38001,-25.90128 -3.90001,-4.07512 -8.97001,-7.90851 -13.67001,-11.29294 -18.87998,-13.60681 -29.81,-16.12786 -53,-21.41172 -21.68999,-4.94714 -23,-6.18176 -45.99999,-6.14724 -13.52999,0.0172 -38.58,2.41746 -51,6.65663 -9.62001,3.28083 -8.05001,9.62664 -13.63,15.70481 -3.56001,3.85928 -19.52001,10.18782 -25.37,10.41229 -9.12001,0.34536 -13.96001,-2.59011 -16.58001,-2.29656 -1.40999,0.16403 -2.43,0.82884 -3.43999,1.65768 -7.70001,6.3199 3.03999,9.63526 5.14999,14.52197 1.46,2.87505 0.48,6.52712 0,9.4626 12.02001,0.85474 28.21001,5.11981 32.22,16.40413 1.25,3.51393 0.13001,7.71858 -0.77,11.22388 -2.86999,11.03394 -12.17999,24.57167 -27.58,22.042 -9.59,-1.57137 -7.50001,-6.4926 -15.00001,-11.68149 0,0 -1.59998,11.12891 -1.59998,11.12891 -3.45,7.2351 -15.12001,2.5297 -21.40001,3.54847 1.7,4.44639 2.22,11.20661 5.43,14.59105 4.22,4.45502 13.94,6.1645 19.17999,11.39656 0,0 7.48002,11.13755 7.48002,11.13755 5.47999,7.38186 9.8,9.66117 13.34999,13.814 3.53,4.12694 2.69,6.04363 5.86,9.4885 0,0 17.91001,13.33052 17.91001,13.33052 3.53,3.34989 10.54,17.27615 13.1,22.07651 5.17998,9.74751 9.64999,14.95366 18.68999,22.41323 0,0 28,18.52804 28,18.52804 13.88001,9.82523 22.78001,18.70934 39.00001,26.52291 19.01999,9.16039 38.92,14.87595 58.99999,21.80886 0,0 74.00002,27.04091 74.00002,27.04091 0,0 40.99996,14.29751 40.99996,14.29751 5.38003,1.41592 12.44005,3.4535 18.00001,3.12541 6.12997,-0.35398 21.59997,-5.78462 37.99998,-5.95728 3.85006,-0.0345 9.43002,-0.21585 13.00004,0.88926 3.97998,1.21737 6.39995,3.83339 8.99996,3.90246 5.75011,0.14678 6.14003,-8.01212 14.00019,-8.11573 13.4998,-0.19857 16.9899,8.12438 16.9999,18.00139 -6.52,1.05331 -10.01,3.27219 -15.0001,6.90701 1.2001,0.9756 1.92,1.44184 2.87,2.68509 7.36,9.66981 -5.69,9.4885 -11.82993,12.46713 -3.87001,1.88218 -5.34009,4.24782 -13.03994,7.96033 -3.43006,1.64905 -9.06015,3.99743 -8.90014,7.96897 0.23997,5.89684 13.62005,19.5727 18.17015,24.1745 2.51996,2.54695 6.45986,6.06954 7.06986,9.49713 1.07,6.10407 -7.02997,7.64951 -12.33995,7.76176 -2.42994,0.0432 -5.71994,0.0863 -8.00002,-0.61301 -11.62997,-3.59164 -22.65997,-21.70525 -26.77004,-31.32325 -4.12992,-9.65255 -1.42991,-13.5291 -10.22997,-16.38687 -26.43991,-8.59059 -81.40997,-12.63982 -111.99997,-18.90794 -15.38001,-3.15995 -52.75,-12.23402 -67,-16.87034 0,0 -72.00001,-27.26541 -72.00001,-27.26541 4.51001,10.844 10.57,8.78053 16.87001,17.26752 4.68,6.31126 6.24999,16.69768 12.34,22.30098 5.61999,5.17162 16.41,9.70433 18.79,16.55091 -11.67001,-0.84611 -23.03001,-8.56468 -28.65,-17.2675 0,0 -7.32001,-13.81402 -7.32001,-13.81402 -2.13,-2.86641 -5.24999,-5.36156 -8.03,-7.77037 0,0 4.87001,6.907 4.87001,6.907 3.41999,5.98319 4.86,12.76932 9.66,18.13088 5.11999,5.72419 12.62,9.01365 19.47,12.95063 0,0 0,1.72676 0,1.72676 -9.39001,2.22752 -19.78,-5.51697 -25.70001,-11.25843 -7.32,-7.0883 -9.66,-15.85156 -13.26999,-20.68647 -5,-6.70842 -10.94002,-7.65814 -16.5,-13.81401 -6.71001,-7.42503 -3.86,-10.15329 -13.53001,-18.99426 2.23001,5.50833 7.1,14.57379 11.33002,18.99426 0,0 14.13998,12.08726 14.13998,12.08726 6.99,7.74449 6.68,14.88459 16.7,24.13997 8.25001,7.62362 16.32,8.6165 22.83001,12.98518 -5.35001,0 -10.83,0.34535 -16,-1.05332 -11.00001,-2.97001 -20.02,-13.07151 -25.57001,-21.39444 0,0 -5.39,-8.59923 -5.39,-8.59923 -3.03,-3.78158 -6.22,-4.39457 -10,-7.22645 -3.21,-2.40018 -6.33999,-6.10407 -8.6,-9.21221 -6.04999,-8.30568 -5.18,-11.36203 -7.37,-14.6774 0,0 -10.73,-12.08725 -10.73,-12.08725 -8.41,-11.16344 -3.99,-11.25842 -17.34,-20.72101 0,0 1.47999,12.08726 1.47999,12.08726 0,0 15.49002,19.85764 15.49002,19.85764 0,0 10.32999,18.12224 10.32999,18.12224 0,0 17.59,16.41278 17.59,16.41278 0,0 13.44001,21.58438 13.44001,21.58438 0,0 19.66999,15.54077 19.66999,15.54077 -3.52999,0 -7.63,0.18994 -11,-0.69071 -9.36998,-2.43472 -18.85999,-11.97501 -23.49,-19.16693 0,0 -6.14001,-10.3605 -6.14001,-10.3605 -3.95999,-4.76584 -14.66997,-12.92474 -20.37,-16.40414 0,0 19.15002,17.26751 19.15002,17.26751 3.17998,4.0665 5.36999,11.08574 12.16999,18.13089 5.1,5.26659 14.81001,9.44533 16.68,14.67738 0,0 -5,0 -5,0 0,0 2,1.72674 2,1.72674 0,0 0,0.86337 0,0.86337 -19.52,7.01062 -38.56999,-13.77945 -48.00001,-25.90125 -9.40998,-12.09589 -13.73998,-9.11725 -22.53999,-21.58439 -8.18998,-11.6124 -7.33,-17.18981 -10.82,-22.44777 -3.61,-5.43926 -9.81,-8.3143 -12.67,-13.814 -2.39,-4.6018 -2.36,-12.3808 -4.71,-15.50623 -1.73,-2.30521 -6.52,-5.41337 -9.09001,-7.81354 0,0 -14.16999,-15.53213 -14.16999,-15.53213 2.15001,12.00954 8.65001,12.73478 12.29,20.721 4.01001,8.7978 4.92,13.33916 10.49001,22.44777 0,0 13.84999,19.85765 13.84999,19.85765 5.81,10.04968 3.77001,15.28174 14.05,26.76463 0,0 7.65,7.77038 7.65,7.77038 0,0 15.84001,17.26752 15.84001,17.26752 4.7,4.48091 10.79999,8.27977 13.83,13.81401 -17.65,3.61752 -29.46999,-15.13499 -37.78001,-25.0379 -5.76,-6.8552 -11.93999,-8.74599 -16.87,-16.40413 -4.32,-6.70842 -3.76,-14.50471 -7.21999,-21.5844 -4.14,-8.45244 -11.77001,-15.62709 -15.14001,-21.58438 -2.82,-5.00757 -1.36,-9.98062 -5.46001,-18.13089 -2.83998,-5.65511 -5.35,-5.681 -9.13998,-9.57482 0,0 -6.39001,-8.55607 -6.39001,-8.55607 0.93,3.58301 2.83,11.77646 4.35002,14.67738 0,0 10.74997,14.6774 10.74997,14.6774 0,0 5.56001,12.95063 5.56001,12.95063 0,0 11,14.67739 11,14.67739 5.85,8.89276 5.09,18.26038 8.43,23.31112 2.81,4.25645 14.08,12.56213 18.58,17.26753 6.41,6.6998 6.46,11.34475 16.33001,18.83885 5.63999,4.28235 9.80998,4.46366 13.99999,7.92579 -21.2,6.68252 -29.71,-11.69875 -40.17,-20.56561 -4.85999,-4.10967 -9.23,-4.41185 -13.87,-10.51592 -8.76,-11.54333 -5.54,-19.78856 -11.27999,-30.21814 -3.75002,-6.80339 -7.63001,-8.02076 -11.81002,-16.40414 -3.85999,-7.77038 -3.62999,-13.65859 -5.17999,-16.40413 -2.12001,-3.74706 -7.18,-6.72569 -9.99,-10.3605 0,0 -5.70001,-11.22389 -5.70001,-11.22389 -0.35998,3.69524 -0.38998,11.56923 1.85001,14.64286 3.22,4.40321 8.73,4.50681 11.54001,11.2584 3.33999,8.03804 1.76999,8.83234 7.94999,18.1309 2.82,4.25644 7.14,7.5718 8.72,12.08725 2.92001,8.30568 1.4,18.48488 7.27001,25.90128 4.01999,5.08527 9,8.4438 13.34999,12.95062 4.77,4.93852 6.22,8.91867 12.33001,13.555 4.64,3.52258 15.44,8.56469 17.98999,12.54485 -3.77,0.2331 -7.19,0.97562 -10.99999,0 -12.40001,-2.29658 -18.03001,-13.37369 -25.47,-20.88507 -5.27001,-5.33566 -10.66,-6.06088 -16.97002,-14.7119 -4.86998,-6.66526 -3.67998,-14.92777 -6.59999,-22.44777 -3.14,-8.09847 -10.02,-12.942 -12.39,-17.26751 -2.3,-4.19601 -2.16,-12.60528 -3.14001,-15.54077 -1.93999,-5.83643 -8.74999,-8.19344 -11.68999,-12.12179 -2.3,-3.07361 -1.74,-7.62361 -1.74,-11.18935 -7.09,1.8131 -10.58,8.32295 -15.13,12.95063 -6.04,6.12998 -15.18,13.60681 -18.97,20.72103 0,0 -8.59,27.62801 -8.59,27.62801 -2.00001,4.73993 -9.56001,17.98411 -9.93,21.58438 -0.59001,5.81054 7.36,7.64951 6.5,16.40413 -0.75,7.62363 -15.66,14.29751 -13.9,22.44778 0.68999,3.14268 4.12,6.14723 6.36,8.63376 0,0 10.8,13.81399 10.8,13.81399 0,0 22.72,39.71529 22.72,39.71529 3.84,7.43367 6.68,10.53318 9.39999,18.99426 2.63001,8.2107 1.96,23.29388 -1.9,31.08151 -2.27998,4.61044 -7.33999,7.74448 -8.13,12.95064 -0.79999,5.18888 6.62,23.31977 8.79001,29.35478 0,0 7.84,24.1745 7.84,24.1745 0,0 10.26001,18.1309 10.26001,18.1309 2.18999,4.56726 1.16999,5.48244 2.56998,8.63373 3.82001,8.6079 9.59001,12.6744 8.31001,23.3112 0,0 -18,-16.4042 -18,-16.4042 2.37,15.5062 1.97,24.4077 2,39.7153 0,0 1,12.9506 1,12.9506 0.3,22.396 -2.65,40.79454 7.45,62.16314 13.16001,27.8352 43.31,50.7492 58.29001,75.977 7.3,12.2858 11.18,31.0987 11.25999,44.8955 0,0 1,18.9944 1,18.9944 0.0801,15.3767 6.31001,47.4252 10.21002,63.0264 0,0 12.36999,39.7152 12.36999,39.7152 0,0 12.70999,38.8518 12.70999,38.8518 2.14001,6.4841 7.84,20.3326 -2.31,23.6566 -1.87,0.613 -4.94,0.518 -6.98,0.518 0,0 -123,0 -123,0 0,0 -15,-0.8634 -15,-0.8634 0,0 -17,0 -17,0 -10.22,-0.017 -30.11001,-0.1899 -22.16,-13.8139 1.03999,-1.7959 2.38001,-3.4795 4.26,-4.6969 3.86,-2.4951 11.2,-2.8232 15.9,-3.1426 0,0 26,-2.193 26,-2.193 18.28,-2.8664 41.58,-13.8226 53.20001,-26.2293 6.23,-6.6567 10.66998,-10.9735 10.79999,-19.8578 0,0 0,-12.0872 0,-12.0872 -0.12,-8.8581 -4.39,-20.8764 -7.67001,-29.3548 0,0 -13.89999,-29.3547 -13.89999,-29.3547 0,0 -7.74001,-16.404 -7.74001,-16.404 0,0 -8.82998,-15.5408 -8.82998,-15.5408 0,0 -32.44,-64.7532 -32.44,-64.7532 0,0 -20.28001,-39.7153 -20.28001,-39.7153 0,0 -14.94,-20.721 -14.94,-20.721 0,0 -19.64002,-28.4914 -19.64002,-28.4914 0,0 -11.69999,-14.67744 -11.69999,-14.67744 -10.48,-15.2126 -27.52999,-48.5217 -32.86,-65.6165 0,0 -2,0 -2,0 0,0 -11.95,22.4477 -11.95,22.4477 0,0 -5.05,13.814 -5.05,13.814 0,0 -18.05,45.75894 -18.05,45.75894 -10.47001,24.7356 -9.57999,20.6261 -14.22,46.6223 -1.01,5.6378 -2.98001,10.6108 -2.68999,16.4042 0.28999,5.8363 7.26,20.9109 9.54,27.6279 5.54999,16.4042 7.64999,28.69 7.42,45.7589 -0.23001,16.9396 -8.74,32.8257 -15.58001,48.3491 0,0 -16.42,43.1688 -16.42,43.1688 -3.74999,9.7216 -9.92001,34.1896 -9.92001,44.0321 0,0 0.75002,6.0437 0.75002,6.0437 0,0 1.45,12.9506 1.45,12.9506 0,0 2.72,18.9942 2.72,18.9942 0.13999,11.2585 -4.77,12.9334 -17,12.9507 0,0 -79.00001,0 -79.00001,0 0,0 -14.99999,-0.8634 -14.99999,-0.8634 0,0 -27.00001,0 -27.00001,0 0,0 -15.00001,-0.8634 -15.00001,-0.8634 0,0 -11.00001,0 -11.00001,0 -4.74998,-0.01 -15.05998,-0.4662 -18.95999,-2.5987 -5.82999,-3.1773 -8.43999,-10.68 -2.80999,-15.0486 3.84,-2.996 10.78999,-3.7643 15.77,-4.4378 0,0 32,-4.3428 32,-4.3428 30.46999,-4.9643 56.7,-15.9638 73.91,-39.1886 9.78999,-13.2097 8.96,-33.853 10.18,-49.2124 0,0 1.91,-20.721 1.91,-20.721 0,0 0,-13.8139 0,-13.8139 0,0 1.08,-12.9507 1.08,-12.9507 0,0 0,-9.4973 0,-9.4973 0,0 1.92,-16.4041 1.92,-16.4041 0,0 0.96,-12.0873 0.96,-12.0873 0,0 0,-11.2238 0,-11.2238 0,0 1.04,-11.2239 1.04,-11.2239 0,0 0.82,-18.1308 0.82,-18.1308 0,0 -0.98999,-9.4971 -0.98999,-9.4971 0,0 -9.66001,-46.6224 -9.66001,-46.6224 0,0 -1.16999,-25.9012 -1.16999,-25.9012 0,0 -1.00002,-12.95074 -1.00002,-12.95074 0,0 0,-12.9506 0,-12.9506 0,0 0.96,-10.3605 0.96,-10.3605 0,0 0,-9.4971 0,-9.4971 0,0 1.04001,-15.5408 1.04001,-15.5408 0.06,-11.4397 6.38,-46.8122 9.41999,-58.70952 0,0 10.72,-35.39839 10.72,-35.39839 1.31001,-7.3387 -9.10999,-11.31886 -7.65999,-17.22434 0.90999,-3.65209 5.37,-4.03197 8.38,-8.67694 1.22,-1.88215 1.47999,-3.96289 2.99001,-5.72417 1.73,-2.01167 3.82999,-2.46063 6.07999,-5.53424 0,0 10.14001,-17.05166 10.14001,-17.05166 2.29998,-2.88368 4.77999,-2.97001 7.51999,-7.10559 0,0 4.66,-8.61649 4.66,-8.61649 0,0 13.06,-23.31114 13.06,-23.31114 0,0 14.15,-27.62802 14.15,-27.62802 0,0 5.19001,-19.85763 5.19001,-19.85763 4.34,-8.2884 17.03999,-9.98925 18.89999,-16.41278 2.54001,-8.77188 -13.74999,-14.21978 -12.14,-22.42186 0.85,-4.36868 6.83001,-5.39609 10.44001,-8.24523 3.56,-2.79734 3.14,-5.23206 3.14999,-9.03953 0.0301,-11.31023 -0.81,-30.64121 -3.44999,-41.44203 0,0 -2.55001,-7.77039 -2.55001,-7.77039 -18.09,3.66071 -37.46,14.64285 -60.99999,14.67739 0,0 -40.00002,0 -40.00002,0 -9.87,-0.0173 -31.53999,-2.85778 -37.26,-10.39504 -1.92999,-2.53833 -1.81,-5.68102 -1.73,-8.59922 0.27,-9.618 14.52001,-28.43096 20.59001,-37.12516 11.21001,-16.05015 25.42002,-31.64271 39.68,-45.75889 0,0 19.27999,-18.13089 19.27999,-18.13089 13.40002,-13.71041 19.24001,-26.20345 38.44001,-37.03883 8.75,-4.9385 26.56001,-9.88564 36.99999,-11.2584 0,0 8.00001,0 8.00001,0 0,0 18,-2.27932 18,-2.27932 8.98,-1.14828 23.94001,-2.3052 30.67001,-7.7272 6.23,-5.00759 7.26,-14.15936 7.32999,-21.12681 -8.8,-0.35398 -22.28998,-2.90957 -26.42999,-10.36051 -2.03001,-3.66071 -1.17001,-6.97607 -2.50001,-11.22388 -1.93,-6.19903 -4.03001,-5.89685 -2.06999,-12.95061 -7.36001,-2.08939 -4.13001,-5.51699 -7.59001,-9.26404 z M 804.61025,252.13579 c 0,0 1.00001,0.86338 1.00001,0.86338 0,0 0,-0.86338 0,-0.86338 0,0 -1.00001,0 -1.00001,0 z m 53,19.85764 c 0,0 1,0.86337 1,0.86337 0,0 0,-0.86337 0,-0.86337 0,0 -1,0 -1,0 z m 1,0.86337 c 0,0 1,0.86338 1,0.86338 0,0 0,-0.86338 0,-0.86338 0,0 -1,0 -1,0 z m 1,0.86338 c 0,0 0.99999,0.86337 0.99999,0.86337 0,0 0,-0.86337 0,-0.86337 0,0 -0.99999,0 -0.99999,0 z m -37,10.3605 c 0,0 1,0.86338 1,0.86338 0,0 0,-0.86338 0,-0.86338 0,0 -1,0 -1,0 z M 557.72024,399.77301 c 2.21,4.07513 4.81,12.2772 7.59,15.44579 3.55,4.0665 9.93,4.36868 16.21001,8.66828 4.8,3.28947 7.12999,8.27115 11.18999,12.1477 0,0 6.77,6.04364 6.77,6.04364 4.5,4.36004 5.27999,8.43517 13.13001,6.907 0,0 -16.91001,-13.81401 -16.91001,-13.81401 0,0 -11.13,-12.66572 -11.13,-12.66572 0,0 -16.43,-9.86839 -16.43,-9.86839 0,0 -7.42,-13.72766 -7.42,-13.72766 0,0 -9.11,-12.95064 -9.11,-12.95064 -1.57,4.55863 3.91,9.75615 6.11,13.81401 z m -10.21,5.18026 c 3.58,12.15632 10.74,14.61694 21.10001,21.98153 0,0 9.99999,8.23661 9.99999,8.23661 4.82,4.21328 8.69001,9.51439 14.99999,12.08726 0,0 1,-0.86338 1,-0.86338 -2.20998,-5.5774 -4.47998,-5.68964 -8.90999,-9.57484 0,0 -8.29999,-8.96183 -8.29999,-8.96183 -3.89001,-3.03045 -9.64,-4.1701 -15.70002,-9.23812 -10.06999,-8.43518 -9.88999,-16.08469 -15.09,-24.89112 -2.06999,3.32399 -0.14,7.70994 0.90001,11.22389 z m -7.75,10.36051 c 5.88999,8.89276 13,13.73629 21.85,20.35838 5.85,4.37731 8.32999,7.10559 16,8.99637 0,0 -2.99,-7.51135 -2.99,-7.51135 0,0 -11.01,-7.33007 -11.01,-7.33007 0,0 -16.89,-11.43109 -16.89,-11.43109 0,0 -12.11,-16.03289 -12.11,-16.03289 -1.41999,4.53273 2.64001,9.16043 5.15,12.95065 z m -10.43001,3.45349 c -1.50999,-4.29099 -1.32999,-7.90852 -6.71999,-9.49714 -4.54,12.08726 -2.15,24.32994 15,25.90128 -3.63,-6.50986 -5.69999,-9.09135 -8.28001,-16.40414 z m 25.28001,18.99426 c 0,0 -9,-8.63375 -9,-8.63375 -0.74,4.77447 2.93001,9.5403 9,8.63375 z M 334.61023,549.87085 c 0,0 -25.99999,13.94352 -25.99999,13.94352 13.51,0 23.83999,-2.21024 36.99998,-4.10104 5.61001,-0.81157 11.76,-0.82021 15.15001,-5.43063 1.95,-2.66784 1.71001,-5.61195 2.13001,-8.59922 0,0 2.72,-18.99427 2.72,-18.99427 0,0 -31.00001,23.18164 -31.00001,23.18164 z m 263.78002,23.44064 c 2.06999,4.16148 1.49999,8.7719 4.74999,13.81401 4.14,6.44078 10.83,10.59363 14.06999,16.40414 2.71001,4.86944 3.47002,13.82265 10.45,22.44776 6.13002,7.57181 12.83001,7.30416 19.85002,16.40413 7.15,9.27266 7.47998,13.20965 19.1,20.80736 3.23,2.11527 6.78999,4.70539 11,4.23054 -7.10002,-4.63633 -18.16001,-14.50471 -23.52001,-20.72101 0,0 -7.79999,-9.49713 -7.79999,-9.49713 -4.79001,-4.95578 -12.62001,-10.2051 -16.15,-15.54076 0,0 -8.05,-18.99427 -8.05,-18.99427 -4.77002,-7.53726 -10.60001,-10.11013 -15.80001,-18.13089 -5.77999,-8.91003 -3.94,-14.94501 -7.62999,-22.44775 -3.11,-6.29402 -10.06,-11.29296 -16.05001,-15.54076 -4.44,9.98925 11.83,18.83884 15.78001,26.76463 z m 11.80999,-5.18025 c 0.70999,3.79885 1.44,8.66829 3.41,12.08727 0,0 19.91001,23.31113 19.91001,23.31113 5.03999,7.40776 1.68,12.11315 9.08998,18.13089 -1.50999,-9.25538 -4.78998,-19.08924 -11.03998,-26.76465 -4.53001,-5.58603 -11.28,-10.12739 -14.29001,-15.54075 -4.04,-7.26098 -0.84,-15.59256 -7.66999,-21.5844 -1.25,3.25494 -0.0301,7.02788 0.58999,10.36051 z m 81.41,44.03216 c 0,0 -6.63999,-7.77039 -6.63999,-7.77039 0,0 -6.36001,-11.22387 -6.36001,-11.22387 -3.18999,7.52863 5.33001,16.17102 13,18.99426 z m 0,0 c 0,0 1,0.86337 1,0.86337 0,0 0,-0.86337 0,-0.86337 0,0 -1,0 -1,0 z m 1,0.86337 c 0,0 1,0.86338 1,0.86338 0,0 0,-0.86338 0,-0.86338 0,0 -1,0 -1,0 z m 1,0.86338 c 0,0 1,0.86338 1,0.86338 0,0 0,-0.86338 0,-0.86338 0,0 -1,0 -1,0 z m 1,0.86338 c 0,0 1.00001,0.86337 1.00001,0.86337 0,0 0,-0.86337 0,-0.86337 0,0 -1.00001,0 -1.00001,0 z m 1.00001,0.86337 c 0,0 0.99999,0.86338 0.99999,0.86338 0,0 0,-0.86338 0,-0.86338 0,0 -0.99999,0 -0.99999,0 z m -18,52.66591 c 0,0 0.99999,0.86338 0.99999,0.86338 0,0 0,-0.86338 0,-0.86338 0,0 -0.99999,0 -0.99999,0 z"
     style="fill:#9fa8b5;stroke:#9fa8b5;stroke-width:1" />
  <path
     id="title"
     d="m 182.70576,1462.6932 c 19.96,19.1 7,56.33 -8.69,73.86 -3.47,3.88 -9.72,9.73 -14.27,12.12 -9.45,4.98 -21.63,-3.25 -30,-7.77 -3.07,-1.66 -9.52,-5.5 -12.95,-4.1 -3.39,1.37 -4.64,5.65 -5.72,8.79 -2.38,6.96 -8.32,25.66 -17.289997,25.55 -5.33,-0.06 -6.65,-7.43 -6.95,-11.55 -0.74,-10.01 2.4,-28.59 5.97,-38 1.54,-4.05 4.86,-11.73 9.029997,-13.4 5.16,-2.07 14.92,1.71 17.29,1.18 3.86,-0.87 10.38,-14.94 10.52,-18.73 0.13,-3.55 -3.15,-4.41 -5.9,-5.38 -6.65,-2.36 -12.66,-4.23 -17.53,-9.76 -13.309997,-15.13 -5.59,-46.42 5.57,-60.91 10.89,-14.14 22.68,-15.66 37.96,-8.03 4.49,2.24 16.28,9.15 21,8.15 5.38,-1.15 11.51,-9.63 17,-13.12 -6.21,13.91 -28.5,36.25 -33,52 10.53,1.39 19.69,1.2 27.96,9.1 z m 697.04,-59.1 c 0,0 1,14 1,14 0,0 0,89 0,89 0,0 1,16 1,16 0.06,11.47 3.93,12.41 2.78,17 -1.44,5.79 -8.76,13.97 -13.93,6.94 -3.32,-4.52 -3.84,-14.37 -3.85,-19.94 0,0 0,-92 0,-92 0,0 0.96,-10 0.96,-10 0,0 0,-14 0,-14 6.19,-0.5 6.84,-1.95 10.04,-7 0,0 2,0 2,0 z m -300,1 c 0,0 0,10 0,10 0,0 17,-8.77 17,-8.77 0,0 31,7.06 31,7.06 0,0 13,-2.29 13,-2.29 -1.94,5.84 -12.68,21.18 -19,21.81 -3.98,0.4 -10.27,-2.8 -14,-4.39 -5.63,-2.41 -12.14,-5.78 -18,-7.26 -2.05,-0.51 -5.61,-1.35 -6.76,1.17 -1.4,3.08 4.57,10.21 6.39,12.67 3.09,4.16 15.44,19.63 16.65,23 0.85,2.4 0.72,5.46 0.72,8 0.02,14.31 2,28.37 -8.18,40 0,0 -11.71,11.96 -11.71,11.96 -1.3,1.44 -3.15,3.12 -2.15,5.22 1.89,3.99 10.06,5.81 14.04,6.39 6.81,0.99 20.87,-0.25 27,-3.24 6.11,-2.98 9.48,-7.55 16,-10.33 -2.12,11.29 -14.25,27.21 -25,31.52 -5.92,2.38 -10.04,2.07 -16,2.65 -7.08,0.68 -14.34,0.72 -21,-2.36 -9.91,-4.57 -18.63,-17.83 -22.54,-27.81 -2.45,-6.28 -4.38,-19.21 -4.46,-26 -0.19,-16.68 0.6,-36.37 6.93,-52 3.56,-8.8 8.46,-11.31 12.46,-18 2.79,-4.66 4.51,-13.51 5.61,-19 0,0 2,0 2,0 z m 371,5.62 c 4.79,-1.6 7.95,2.67 5.81,5.85 0,0 -12.81,7.53 -12.81,7.53 0.05,-5.48 0.87,-11.35 7,-13.38 z m -837.35,36.34 c 4.79,6.47 12.8,8 20.35,8.04 3.85,0.02 13.6,0.84 16.37,-1.6 1.64,-1.45 3.82,-6.27 4.88,-8.4 1.07,-2.16 3.09,-5.46 2.34,-7.91 -0.82,-2.68 -6.27,-6.42 -8.59,-8.05 -6.76,-4.76 -20.87,-14.19 -29,-14.43 -11.79,3.88 -12.69,23.79 -6.35,32.35 z m 803.35,103.46 c -4.31,-0.16 -13.96,-9.49 -15.4,-13.42 -0.72,-1.94 -0.6,-4.91 -0.6,-7 0,0 0,-60 0,-60 -0.01,-4.74 -0.18,-9.53 -1.98,-14 -1.45,-3.6 -4.6,-6.71 -3.76,-10 0.5,-1.95 3.41,-5.35 4.74,-7 3.93,-4.89 8.33,-11.26 14,-14 0,0 1,16 1,16 3.94,0 15.78,-0.88 18.4,1.74 2.55,2.55 0.79,6.74 -1.63,8.68 -3.75,3.01 -12.1,2.58 -16.77,2.58 0,0 0,57 0,57 0.05,3.86 0.81,15.01 2.74,17.96 3.85,5.87 10.15,6.5 16.26,8.04 -2.2,4.63 -11.5,13.62 -17,13.42 z m -347.17,-102.42 c -2.38,15.92 -2.58,32.11 0,48 0.92,4.91 3.71,22.57 11.17,20.34 8.56,-2.55 10.91,-21.74 11,-29.34 0.24,-20.8 -2.89,-24.22 -10.4,-43 0,0 -5.6,-15 -5.6,-15 -4.64,4.87 -5.35,12.57 -6.17,19 z m -304.79,-3.03 c 3.95,0.1 9.29,-8.27 14.96,-7.33 2.02,0.33 4.38,2.05 6,3.26 2.86,2.13 7.09,5.63 8.22,9.1 1,3.07 -0.6,5.98 -1.12,9 0,0 0,13 0,13 0,0 -1.1,13 -1.1,13 0,0 0,23 0,23 0,0 0,21 0,21 -0.07,10.19 -6.04,11.38 -14,16.67 -2.31,1.53 -6.19,4.54 -9,4.41 -3.42,-0.17 -16.28,-10.19 -17.99,-13.25 -2.18,-3.95 -0.07,-13.05 0,-17.83 0,0 0,-45 0,-45 -0.02,-3.59 -0.68,-12.68 -1.4,-16 -0.73,-3.42 -2.89,-6.35 -2.14,-10 0.67,-3.29 5.38,-9.22 7.53,-12 2.65,2.21 7.38,8.9 10.04,8.97 z m 767.56004,110.03 c 1.34,-2.24 5.65,-8.75 5.73,-11 0.14,-3.7 -5.87,-8.37 -8.27,-11 -4.27,-4.67 -4.05,-6 -4.06,-12 0,0 0,-61 0,-61 0.02,-10.89 3.52,-11.01 12,-17.37 2.68,-2.02 6.59,-5.52 10,-5.69 2.57,-0.12 18.96,5.57 22,6.94 2.15,0.96 4.42,2.03 5.4,4.33 1.67,3.89 -0.82,10.18 -2.4,13.79 0,0 -33,-9 -33,-9 0,0 -1,15 -1,15 0,0 0,35 0,35 0.05,4.15 0.94,13.5 3.09,16.9 3.12,4.95 9.55,5.85 14.91,6.1 0,0 -1,-20 -1,-20 0,0 0,-18 0,-18 0.11,-9.35 1.83,-17.65 11,-22 1.69,5.95 0.97,13.72 1,20 0,0 1.17,15 1.17,15 0,0 5.86,43 5.86,43 0.36,6.46 1.24,12.78 -1.59,19 -2.46,5.43 -7.03,9.09 -11.44,12.87 -2.02,1.74 -6.76,5.76 -9,6.8 -7.69,3.57 -16.35,-9.47 -22,-10.56 -4.92,-0.95 -6.13,6.34 -13,9.89 2.36,-8.28 10.01,-19.36 14.6,-27 z m -676.60004,-27 c 0,0 -1,-16 -1,-16 0,0 0,-45 0,-45 -0.16,-13.09 -5.69,-15.21 -2.99,-22 0.39,-0.99 0.99,-2.05 1.64,-2.89 7.18,-9.25 10.67,3.76 16.35,2.87 3.41,-0.54 8.79,-7.05 13,-7.28 2.64,-0.14 5.03,1.8 7,3.32 11.37,8.75 7.02,11.88 6.96,23.98 0,0 0,13 0,13 0,0 -0.96,11 -0.96,11 0,0 0,24 0,24 0,0 1.72,20.89 1.72,20.89 0.67,1.68 1.17,1.9 2.28,3.11 -2.74,5.53 -9.2,10.08 -15,12 0,0 -1,-17 -1,-17 0,0 0,-26 0,-26 0,0 -1,-15 -1,-15 0,0 0,-23 0,-23 -0.02,-9.02 -2.91,-14.9 -12,-18 0,0 -1,10 -1,10 0,0 -1,22 -1,22 0,0 0,67 0,67 0,0 -13,0 -13,0 0,0 0,-21 0,-21 z m 69,22.12 c -2.58,0.3 -5.15,-1.88 -7,-3.42 -7.02,-5.88 -8.98,-7.75 -9,-16.7 0,0 0,-16 0,-16 0,0 1,-16 1,-16 0,0 0,-28 0,-28 -0.04,-3.29 -0.75,-9.88 -1.55,-13 -0.87,-3.44 -2.49,-5.25 -1.79,-9 0,0 1.36,-4 1.36,-4 0.76,-1.82 2.12,-5.05 4.19,-5.66 3.56,-1.06 10.09,6.67 11.19,9.66 0.72,1.94 0.6,4.91 0.6,7 0,0 0,55 0,55 0.01,6.13 0.51,25.33 9.89,24.75 5.2,-0.32 5.1,-13.92 5.11,-17.75 0,0 0,-51 0,-51 -0.03,-4.31 0.04,-6.31 -2.57,-10 -2.1,-2.97 -6.36,-5.94 -5.44,-10 0.32,-1.42 1.85,-3.8 2.77,-4.94 5.39,-6.66 12.82,-0.96 15.67,4.94 2.05,4.24 1.38,9.37 1.99,14 0,0 0.58,38 0.58,38 0,0 -0.91,15 -0.91,15 0,0 1.32,16.96 1.32,16.96 0.93,3.66 3.41,5.03 2.35,8.08 -1.12,3.2 -12.59,12.7 -15.76,14.96 0,0 -1,-12 -1,-12 -2.74,2.05 -10.19,8.78 -13,9.12 z m 57,-0.45 c -5.21,-0.42 -13.85,-8.79 -15.44,-13.67 -0.67,-2.05 -0.56,-4.83 -0.56,-7 0,0 0,-69 0,-69 0.01,-2.6 -0.19,-5.62 1.02,-7.99 2.64,-5.15 14.19,-13.42 19.98,-14.54 6.3,-1.22 11.84,0.03 18,0.53 -0.93,3.99 -4.22,14.86 -8.21,16.36 -2.92,1.11 -12.65,-2.21 -15.79,-3.36 0,0 0,69 0,69 0.03,15.16 8.62,16 21,16 -2.56,5.16 -13.92,14.16 -20,13.67 z m 205.57,-95.67 c 1.41,5.18 -0.5,14.41 -0.57,20 0,0 0,57 0,57 -0.16,8.19 -5.76,10.33 -12,14.85 -2.4,1.74 -5.93,4.56 -9,4.48 -2.82,-0.06 -6.67,-2.79 -9,-4.33 -8.44,-5.58 -11.98,-5.91 -12,-16 0,0 0,-39 0,-39 0,0 1,-15 1,-15 0,0 0,-17 0,-17 0,-2.07 -0.11,-5.08 0.6,-7 1.98,-5.31 13.14,-12.32 18.4,-14.31 7.52,-0.82 20.6,9.09 22.57,16.31 z m 13.43,41 c 0,-10.07 0.67,-27.79 -1.38,-37 0,0 -1.99,-6 -1.99,-6 -2.14,-8.06 4.04,-14.33 8.37,-12.83 3.53,1.22 6.31,7.24 10.17,5.84 2.97,-1.08 8.86,-8.07 13.83,-7.24 4.27,0.72 12.83,8.99 13.6,13.23 0,0 -1.6,27 -1.6,27 0,0 0,43 0,43 0,0 1.95,17 1.95,17 -0.72,4.66 -8.88,9.42 -12.95,11 -1.37,-7.65 -0.99,-14.3 -1,-22 0,0 -1,-16 -1,-16 0,0 0,-32 0,-32 0,-12.51 2.42,-23.33 -12,-29 -3.13,17.46 -2,55.53 -2,75 0,0 0,17 0,17 -0.04,1.95 0.1,4.63 -1.6,5.98 -1.59,1.25 -5.41,1.02 -7.4,1.02 0,0 -5,0 -5,0 0,0 0,-54 0,-54 z m 58.28,26 c 1.41,-3.33 6.02,-11.84 5.16,-15 -0.9,-3.32 -4.62,-5.3 -6.33,-11 -1.57,-5.2 -1.53,-27.11 -0.83,-33 0.34,-2.79 0.79,-7.63 2.03,-9.99 2.88,-5.44 14.83,-13.14 20.69,-15.01 2.12,2.98 9.9,15.04 13.78,13.8 2.48,-0.79 2.52,-4.32 6.22,-6.8 -0.66,7.82 -4.06,16.79 -7.15,24 -1.04,2.43 -4.91,10.84 -4.93,12.91 -0.04,5.33 10.48,8.74 12.1,16.09 0,0 -1.02,19 -1.02,19 0,0 -0.96,13 -0.96,13 -0.12,2.69 0.31,6.34 -1.06,8.7 -1.51,2.59 -8.28,7.15 -10.98,8.86 -2.51,1.6 -5.99,3.9 -9,4.03 -5.64,0.25 -12.78,-6.25 -21,-8.59 0,0 -3,12 -3,12 -2.76,-9.72 2.44,-23.91 6.28,-33 z m 65.72,-67 c 0,0 0,58 0,58 0.01,5.29 0.41,14.65 3.65,18.9 1.57,2.05 5.13,5.13 7.84,3.29 1.8,-1.22 2.24,-4.21 2.42,-6.19 0,0 1.09,-16 1.09,-16 0,0 0,-45 0,-45 -0.01,-3.42 0.28,-5.94 -1.58,-9 -2.18,-3.58 -7.47,-7.35 -6.58,-12 0.29,-1.5 1.61,-3.67 2.52,-4.89 4.09,-5.48 9.29,-3.16 13.41,1.1 4.17,4.31 4.22,11.16 4.23,16.79 0,0 0,47 0,47 0,12.18 -1.54,20.1 5,31 0,0 -17,16 -17,16 0,0 -1,-12 -1,-12 -2.62,1.86 -10.71,8.59 -13,9.04 -3.23,0.63 -5.84,-2.09 -8,-4.07 -6.71,-6.13 -7.98,-5.85 -8,-14.97 0,0 0,-42 0,-42 0,0 0.82,-12 0.82,-12 0,0 -0.91,-7 -0.91,-7 0,0 0,-11 0,-11 -0.64,-3.44 -2.76,-6.46 -2.48,-10 0.25,-3.18 3.21,-8.84 4.57,-12 8.03,2.74 12.94,8.49 13,17 z m 131.44,-4 c 0.68,2.09 0.6,5.75 0.55,8 0,0 -0.99,14 -0.99,14 0,0 0,44 0,44 0.01,3.5 0.68,12.79 1.43,16 1.21,5.68 5.01,7.68 0,13.96 -1.08,1.4 -2.78,3.1 -4.44,3.81 -3.95,1.68 -6.67,-1.57 -8.3,-4.77 -1.95,-3.82 -2.68,-15.42 -2.69,-20 0,0 0,-54 0,-54 -0.01,-4.86 -0.33,-9.25 -1.51,-14 -0.75,-3 -2.32,-5.83 -2.06,-9 0.29,-3.53 2.84,-7.95 4.57,-11 5.5,1.88 11.6,7.32 13.44,13 z m 13.56,18 c -0.17,-13.84 -5.92,-15.78 -2.99,-23 0.4,-0.99 0.98,-2.04 1.64,-2.89 6.87,-8.83 10.63,3.87 16.35,2.78 3.06,-0.58 8.67,-7.02 13,-7.2 3.05004,-0.13 5.84004,2.45 7.99004,4.31 2.17,1.89 5.04,4.34 6.08,7.04 0,0 0,21.96 0,21.96 0,0 -1.07,14 -1.07,14 0,0 0,33 0,33 0.08,6.32 0.5,14.73 4,20 -4.03,4.88 -9.07,8.73 -15.00004,11 0,0 -1,-15 -1,-15 0,0 -1,-56 -1,-56 0,-12.41 2.25,-22.41 -12,-28 0,0 -1,10 -1,10 0,0 -1,20 -1,20 0,0 0,69 0,69 0,0 -14,0 -14,0 0,0 0,-81 0,-81 z m -746,82.31 c -2.95,0.14 -6.6,-2.72 -9,-4.31 -8.56,-5.69 -11.98,-5.62 -12,-16 0,0 0,-35 0,-35 0,0 1,-15 1,-15 0,0 0,-22 0,-22 0,-2.41 -0.22,-5.58 1.02,-7.7 2.43,-4.15 16.03,-12.95 20.98,-11.75 8.7,2.11 7.79,11.58 17,7.45 -1.24,6.63 -12,27.16 -15.69,34 -2.6,4.8 -4.42,10.1 -8.31,14 0,0 9.16,-23 9.16,-23 0.8,-6.05 -6.85,-17.13 -11.16,-21 0,0 0,17 0,17 0,0 1,16 1,16 0,0 0,32 0,32 0.05,11.19 6,19.91 18,20.53 0,0 7,-0.53 7,-0.53 -2.23,4.62 -13.72,15.06 -19,15.31 z m 104,0 c -2.95,0.14 -6.6,-2.72 -9,-4.31 -8.56,-5.69 -11.98,-5.62 -12,-16 0,0 0,-35 0,-35 0,0 1,-15 1,-15 0,0 0,-22 0,-22 0,-2.41 -0.22,-5.58 1.02,-7.7 2.43,-4.15 16.03,-12.95 20.98,-11.75 8.7,2.11 7.79,11.58 17,7.45 -1.24,6.6 -12.39,28.24 -16.14,35 -2.58,4.65 -4.06,9.2 -7.86,13 0,0 9.29,-24 9.29,-24 0.2,-5.41 -7.17,-15.55 -10.29,-20 -2.4,9.87 -0.02,17.35 0,27 0,0 0,39 0,39 0.13,10.57 6.15,18.14 17,19.22 2.45,0.52 5.48,-0.02 8,0 -2.23,4.4 -13.72,14.84 -19,15.09 z m -63,-85.31 c 0,0 0,28 0,28 0,0 0,20 0,20 0.06,5.16 0.72,10.55 3.56,14.98 0,0 2.12,2.79 2.12,2.79 7.2,7.63 8.3,-2.68 8.32,-7.77 0,0 0,-15 0,-15 0,0 0.96,-12 0.96,-12 0,0 0,-13 0,-13 0,0 -0.92,-13 -0.92,-13 -0.43,-9.82 -0.57,-19.27 -13.04,-20 0,0 -1,15 -1,15 z m 409,50 c 0,0 0,-35 0,-35 0,-10.31 1.97,-15.22 -6.02,-22.96 -2.91,-2.82 -4.18,-3.75 -7.98,-5.04 0,0 -1,66 -1,66 0,1.93 -0.12,5.08 0.6,6.83 1.96,4.76 8.65,7.63 13.4,8.17 0,0 1,-18 1,-18 z m 97.84,-34 c 0.28,2.61 0.39,9.79 5.02,7.83 1.92,-0.81 4,-4.08 5.07,-5.83 1.53,-2.5 2.86,-4.99 2.86,-8 0.01,-5.48 -8.35,-18.5 -11.79,-23 -3.43,6.73 -1.99,21.4 -1.16,29 z m -655.84,-2.82 c 16.32,8.38 29.69,-1.63 46,5.72 10.56,4.77 12.34,15.56 20,18.1 -2.75,-9.41 -5.96,-19.45 -15,-24.78 -7.22,-4.25 -16.9,-3.13 -25,-3.22 0,0 -17,-1 -17,-1 -12.7,-0.06 -11.63,-3.3 -21,-10 -0.31,6.58 6.64,12.43 12,15.18 z m 39,51.56 c 3.89,1.88 10.65,4.92 14.98,3.82 4.85,-1.24 6.71,-6.12 7.55,-10.56 1.7,-8.95 0.81,-19.7 -5.06,-26.96 -9.1,-11.26 -22.9,-9.79 -35.47,-12.04 -3.78,6.82 -10.83,22.55 -12,30 0,0 30,15.74 30,15.74 z m 629.76,-20.74 c -0.67,-2.83 -2.11,-8.61 -5.81,-8.66 -2.24,-0.04 -4.27,2.14 -5.63,3.68 -3.08,3.5 -8.95,12.12 -7.49,16.98 1.77,5.92 12.46,13.18 18.17,15 2.5,-8.19 2.74,-18.67 0.76,-27 z m 258.24004,37 c -1.58,2.02 -4.5,5.25 -4.1,7.99 0.37,2.51 3.3,4.71 5.1,6.28 4.85,4.24 9.62,9.15 16,10.73 2.19,-12.22 1.2,-28.78 -1,-41 -6.89,3.26 -11.39,10.14 -16,16 z m -952.000037,12 c 0.04,2.85 0.55,12.09 5.69,9.83 2.26,-0.99 4.459997,-5.66 5.549997,-7.83 2.26,-4.51 5.98,-14.15 7.52,-19 0.36,-1.97 1.49,-5.59 0,-7.4 -1.29,-2.04 -4.64,-1.48 -6.76,-1.27 -11.259997,2.87 -12.109997,15.92 -11.999997,25.67 z"
     style="fill:#9fa8b5;stroke:#9fa8b5;stroke-width:1" />
</svg>
